# xmcd
#
# Track frame offsets:
#	150
#	22367
#	49317
#	71265
#	93147
#	105822
#	129585
#	155882
#	178702
#	197972
#
# Disc length: 2876 seconds
#
# Revision: 1921478570
# Processed by: cddbd v1.5.2PL0 Copyright (c) Steve Scherf et al.
# Submitted via: EZCDAudioConverter 8.0.2.1
#
DISCID=880b3a0a
DTITLE=Ngọc Sơn - Dạ Vũ Tân Hôn
DYEAR=1993
DGENRE=
TTITLE0=Tà áo cưới
TTITLE1=Thiệp hồng anh viết tên em
TTITLE2=Xe hoa rẽ lối
TTITLE3=Anh đi mùa cưới
TTITLE4=Xe hoa một chuyến
TTITLE5=Duyên quê
TTITLE6=Áo cưới nàng dâu
TTITLE7=Ngày cưới em
TTITLE8=Một chuyến xe hoa
TTITLE9=Đám cưới trên đường quê
EXTD=
EXTT0=
EXTT1=
EXTT2=
EXTT3=
EXTT4=
EXTT5=
EXTT6=
EXTT7=
EXTT8=
EXTT9=
PLAYORDER=
